PathFileType	3	(X/Y/Z)	RCH0000002 BBF 11.c3d
DataRate	CameraRate	NumFrames	NumMarkers	Units	OrigDataRate	OrigDataStartFrame	OrigNumFrames
100.0	100.0	7	23	mm	100.0	358	502
Frame#	Time	T2			T10			MAN			LASI			RASI			LPSI			RPSI			LPAT			LKNE			LANK			LMED			LTOE			RPAT			RKNE			RANK			RMED			RHEE			RTOE			LHEE			RTHI			LTHI			RTIB			LTIB			
		X1	Y1	Z1	X2	Y2	Z2	X3	Y3	Z3	X4	Y4	Z4	X5	Y5	Z5	X6	Y6	Z6	X7	Y7	Z7	X8	Y8	Z8	X9	Y9	Z9	X10	Y10	Z10	X11	Y11	Z11	X12	Y12	Z12	X13	Y13	Z13	X14	Y14	Z14	X15	Y15	Z15	X16	Y16	Z16	X17	Y17	Z17	X18	Y18	Z18	X19	Y19	Z19	X20	Y20	Z20	X21	Y21	Z21	X22	Y22	Z22	X23	Y23	Z23	

358	3.570	877.08728	-15.56548	984.08983	890.47406	-37.50371	799.06248	1006.60925	4.64369	956.10462	961.50477	58.87589	653.87333	993.97169	-115.27956	654.02341	866.01376	-15.02833	709.42664	878.00468	-83.97505	707.50694	942.81281	25.86016	378.96845	894.17346	84.95593	346.52748	821.14795	97.87005	79.13148	826.56158	28.69568	95.19391	870.38336	62.64750	70.34808	1072.45453	-67.31670	391.08905	1023.38278	-119.06842	355.00868	872.46947	-137.31432	132.84273	864.93834	-69.11486	147.58789	844.36728	-108.32394	181.89530	904.14735	-98.00729	102.92624	784.62322	56.30897	112.26345	1015.65636	-192.08960	463.97761	899.31917	147.56068	475.28963	963.83745	-192.67045	265.96226	858.21257	154.85946	237.02034	
359	3.580	886.62973	-15.84010	984.37876	898.03796	-37.85106	799.06448	1016.15474	2.59398	955.19153	968.93692	58.94056	654.04765	1002.28096	-115.08900	653.82534	873.54013	-15.90202	708.81167	885.72205	-84.61029	706.49799	946.25593	27.47533	378.31210	896.75389	86.25006	346.81182	821.95809	99.03787	79.53674	827.58600	29.95777	95.93191	871.13548	63.70517	70.41228	1090.09334	-68.26240	396.59769	1042.38728	-119.94498	358.82070	897.62540	-138.40552	133.16538	890.04607	-69.98777	146.99588	868.06111	-108.91215	180.86300	930.80003	-99.61958	104.50002	785.70004	57.63286	113.21931	1030.23478	-192.74398	467.59497	903.66658	148.32217	475.72304	984.93272	-193.57223	268.72948	859.86608	156.23557	237.32971	
360	3.590	896.27167	-16.21311	984.36577	905.68746	-38.41524	798.79173	1025.78931	0.45693	953.91493	976.51585	58.91337	654.06452	1010.73005	-114.98814	653.24309	881.16564	-16.92296	707.89828	893.55081	-85.39785	705.08913	949.82819	29.11660	377.55535	899.47114	87.57660	347.04748	822.75105	100.26975	79.89821	828.58981	31.29830	96.63624	871.87271	64.83748	70.44115	1107.13634	-69.16537	401.76796	1060.93155	-120.80329	362.36225	923.21065	-139.71200	133.00327	915.49931	-71.08056	145.82625	892.07774	-109.74049	179.20111	957.79053	-101.40340	105.63305	786.77228	59.03965	114.15528	1044.58538	-193.35781	470.81333	908.20309	149.10006	476.07516	1005.95749	-194.56653	271.15032	861.61830	157.65941	237.59788	
361	3.600	906.02620	-16.75234	984.06666	913.47423	-39.21918	798.26194	1035.52081	-1.77556	952.32201	984.28648	58.79147	653.93406	1019.35943	-114.98069	652.29489	888.95178	-18.07430	706.72176	901.54825	-86.32578	703.31723	953.52814	30.71461	376.70672	902.32058	88.86790	347.24126	823.48205	101.46322	80.24494	829.57139	32.61109	97.31432	872.57396	65.97665	70.45002	1123.47369	-69.96855	406.45336	1078.87773	-121.59220	365.51302	949.13024	-141.23403	132.28914	941.16423	-72.40751	144.02221	916.31108	-110.84441	176.84785	984.99714	-103.32973	106.24998	787.82413	60.39449	115.08550	1058.60690	-193.90466	473.53218	912.96405	149.85605	476.33941	1026.84254	-195.62595	273.12804	863.39400	159.03994	237.84804	
362	3.610	915.90037	-17.51770	983.49704	921.44871	-40.27413	797.49010	1045.35429	-4.11002	950.46416	992.29134	58.57172	653.65905	1028.20983	-115.06948	651.00677	896.95781	-19.33846	705.31327	909.77071	-87.38085	701.22445	957.39194	32.20471	375.76838	905.33323	90.05518	347.39085	824.12394	102.52724	80.61295	830.53906	33.79952	97.97857	873.22726	67.05865	70.45465	1139.00984	-70.60273	410.49828	1096.10431	-122.25797	368.14545	975.24383	-142.96252	130.96313	966.85747	-73.97782	141.54313	940.61826	-112.25823	173.75914	1012.24449	-105.35753	106.28198	788.85608	61.57796	116.03411	1072.22982	-194.35266	475.65198	917.99310	150.54757	476.50288	1047.52016	-196.71412	274.55897	865.15918	160.28937	238.10409	
363	3.620	925.89503	-18.55793	982.67124	929.65896	-41.57960	796.48771	1055.29212	-6.55059	948.39454	1000.56780	58.25157	653.23452	1037.32100	-115.25538	649.41041	905.23740	-20.69903	703.69821	918.27113	-88.55015	698.85660	961.49462	33.53064	374.73321	908.57926	91.07406	347.48151	824.67201	103.38926	81.04341	831.51226	34.78429	98.64568	873.83202	68.02783	70.47000	1153.67017	-70.98824	413.74597	1112.51473	-122.74651	370.13233	1001.35432	-144.88035	128.98195	992.34075	-75.79403	138.37134	964.81095	-114.01009	169.91865	1039.29707	-107.43965	105.67494	789.88782	62.49554	117.03453	1085.42762	-194.66381	477.08312	923.34253	151.13103	476.54550	1067.91627	-197.78713	275.34499	866.93054	161.33059	238.38641	
364	3.630	936.00501	-19.90817	981.60207	938.14912	-43.12342	795.26303	1065.33408	-9.09841	946.16602	1009.14559	57.82953	652.64802	1046.72966	-115.53664	647.54190	913.83561	-22.14157	701.89610	927.09638	-89.82194	696.26235	965.94650	34.64643	373.58289	912.16662	91.86866	347.48392	825.14699	103.99905	81.58040	832.52232	35.50812	99.33532	874.40065	68.83959	70.50922	1167.40704	-71.04013	416.05041	1128.04387	-123.00697	371.35741	1027.20136	-146.96417	126.32826	1017.32118	-77.85063	134.51947	988.65103	-116.11694	165.34757	1065.85880	-109.52895	104.39858	790.95989	63.08304	118.12761	1098.22069	-194.79563	477.75593	929.07254	151.56445	476.43957	1087.94254	-198.79625	275.40755	868.77877	162.10240	238.70785	
